# xmcd
#
# Track frame offsets: 
#        150
#        15661
#        36099
#        52262
#        73995
#        91383
#        108791
#        140014
#        159965
#        180659
#        201984
#        222417
#
# Disc length: 3284 seconds
#
# Revision: 0
# Processed by: cddbd v1.5.2PL0 Copyright (c) Steve Scherf et al.
# Submitted via: ExactAudioCopy v0.95a3
#
DISCID=b00cd20c
DTITLE=The T-Dynamix - Sax, Ties and Rock'n' Roll
DYEAR=2007
DGENRE=Blues
TTITLE0=Fairy Tale Rock
TTITLE1=Tired Of Waiting
TTITLE2=Groovin' Girl
TTITLE3=She's About To Come
TTITLE4=Hooker's Boogie
TTITLE5=Bullet Flying Man
TTITLE6=The Shimmering
TTITLE7=NB2 (A Girl For Breakfast)
TTITLE8=Little Sign
TTITLE9=Fears Of A Hesitant Man
TTITLE10=The Meaning Of Rock'n' Roll
TTITLE11=Soul Affair
EXTD=
EXTT0=
EXTT1=
EXTT2=
EXTT3=
EXTT4=
EXTT5=
EXTT6=
EXTT7=
EXTT8=
EXTT9=
EXTT10=
EXTT11=
PLAYORDER=
